<svg xmlns="http://www.w3.org/2000/svg" xmlns:xlink="http://www.w3.org/1999/xlink" width="500" zoomAndPan="magnify" viewBox="0 0 375 374.999991" height="500" preserveAspectRatio="xMidYMid meet" version="1.0"><defs><g/><clipPath id="8d9ee0d4c5"><path d="M 282.941406 51.304688 L 337.691406 51.304688 L 337.691406 106.054688 L 282.941406 106.054688 Z M 282.941406 51.304688 " clip-rule="nonzero"/></clipPath></defs><g clip-path="url(#8d9ee0d4c5)"><path fill="#00bf63" d="M 318.527344 106.054688 L 302.101562 106.054688 C 301.738281 106.054688 301.390625 105.984375 301.054688 105.847656 C 300.71875 105.707031 300.425781 105.511719 300.167969 105.253906 C 299.910156 104.996094 299.710938 104.699219 299.574219 104.367188 C 299.433594 104.03125 299.367188 103.679688 299.367188 103.316406 L 299.367188 89.628906 L 285.679688 89.628906 C 285.316406 89.628906 284.964844 89.5625 284.628906 89.421875 C 284.296875 89.285156 284 89.085938 283.742188 88.828125 C 283.484375 88.570312 283.289062 88.277344 283.148438 87.941406 C 283.011719 87.605469 282.941406 87.257812 282.941406 86.894531 L 282.941406 70.46875 C 282.941406 70.105469 283.011719 69.753906 283.148438 69.421875 C 283.289062 69.085938 283.484375 68.789062 283.742188 68.53125 C 284 68.277344 284.296875 68.078125 284.628906 67.9375 C 284.964844 67.800781 285.316406 67.730469 285.679688 67.730469 L 299.367188 67.730469 L 299.367188 54.042969 C 299.367188 53.679688 299.433594 53.332031 299.574219 52.996094 C 299.710938 52.660156 299.910156 52.363281 300.167969 52.105469 C 300.425781 51.851562 300.71875 51.652344 301.054688 51.515625 C 301.390625 51.375 301.738281 51.304688 302.101562 51.304688 L 318.527344 51.304688 C 318.890625 51.304688 319.238281 51.375 319.574219 51.515625 C 319.910156 51.652344 320.207031 51.851562 320.464844 52.105469 C 320.71875 52.363281 320.917969 52.660156 321.058594 52.996094 C 321.195312 53.332031 321.265625 53.679688 321.265625 54.042969 L 321.265625 67.730469 L 334.953125 67.730469 C 335.316406 67.730469 335.664062 67.800781 336 67.9375 C 336.335938 68.078125 336.632812 68.277344 336.886719 68.53125 C 337.144531 68.789062 337.34375 69.085938 337.480469 69.421875 C 337.621094 69.753906 337.691406 70.105469 337.691406 70.46875 L 337.691406 86.894531 C 337.691406 87.257812 337.621094 87.605469 337.480469 87.941406 C 337.34375 88.277344 337.144531 88.570312 336.886719 88.828125 C 336.632812 89.085938 336.335938 89.285156 336 89.421875 C 335.664062 89.5625 335.316406 89.628906 334.953125 89.628906 L 321.265625 89.628906 L 321.265625 103.316406 C 321.265625 103.679688 321.195312 104.03125 321.058594 104.367188 C 320.917969 104.699219 320.71875 104.996094 320.464844 105.253906 C 320.207031 105.511719 319.910156 105.707031 319.574219 105.847656 C 319.238281 105.984375 318.890625 106.054688 318.527344 106.054688 Z M 304.839844 100.582031 L 315.789062 100.582031 L 315.789062 86.894531 C 315.789062 86.53125 315.859375 86.179688 316 85.84375 C 316.136719 85.511719 316.335938 85.214844 316.59375 84.957031 C 316.847656 84.699219 317.144531 84.503906 317.480469 84.363281 C 317.816406 84.226562 318.164062 84.15625 318.527344 84.15625 L 332.214844 84.15625 L 332.214844 73.207031 L 318.527344 73.207031 C 318.164062 73.207031 317.816406 73.136719 317.480469 72.996094 C 317.144531 72.859375 316.847656 72.660156 316.59375 72.402344 C 316.335938 72.148438 316.136719 71.851562 316 71.515625 C 315.859375 71.179688 315.789062 70.832031 315.789062 70.46875 L 315.789062 56.78125 L 304.839844 56.78125 L 304.839844 70.46875 C 304.839844 70.832031 304.769531 71.179688 304.632812 71.515625 C 304.492188 71.851562 304.296875 72.148438 304.039062 72.402344 C 303.78125 72.660156 303.484375 72.859375 303.152344 72.996094 C 302.816406 73.136719 302.464844 73.207031 302.101562 73.207031 L 288.414062 73.207031 L 288.414062 84.15625 L 302.101562 84.15625 C 302.464844 84.15625 302.816406 84.226562 303.152344 84.363281 C 303.484375 84.503906 303.78125 84.699219 304.039062 84.957031 C 304.296875 85.214844 304.492188 85.511719 304.632812 85.84375 C 304.769531 86.179688 304.839844 86.53125 304.839844 86.894531 Z M 304.839844 100.582031 " fill-opacity="1" fill-rule="nonzero"/></g><g fill="#000000" fill-opacity="1"><g transform="translate(92.059568, 182.865156)"><g><path d="M 57.039062 -61.996094 L 44.328125 -61.996094 L 31.230469 -30.765625 L 18.210938 -61.996094 L 5.425781 -61.996094 L 5.425781 0 L 17.050781 0 L 17.050781 -34.253906 L 24.875 -15.578125 L 37.585938 -15.578125 L 45.492188 -34.410156 L 45.492188 0 L 57.039062 0 Z M 57.039062 -61.996094 "/></g></g></g><g fill="#000000" fill-opacity="1"><g transform="translate(154.521474, 182.865156)"><g><path d="M 41.382812 -50.527344 L 41.382812 -62.074219 L 5.425781 -62.074219 L 5.425781 0 L 41.382812 0 L 41.382812 -11.546875 L 17.050781 -11.546875 L 17.050781 -25.339844 L 31.542969 -25.339844 L 31.542969 -36.890625 L 17.050781 -36.890625 L 17.050781 -50.527344 Z M 41.382812 -50.527344 "/></g></g></g><g fill="#000000" fill-opacity="1"><g transform="translate(201.329157, 182.865156)"><g><path d="M 25.730469 -61.996094 L 5.425781 -61.996094 L 5.425781 0 L 25.730469 0 C 42.082031 0 53.707031 -13.871094 53.707031 -31 C 53.707031 -48.125 41.617188 -61.996094 25.730469 -61.996094 Z M 25.730469 -50.449219 C 34.953125 -50.449219 42.160156 -41.925781 42.160156 -31 C 42.160156 -25.417969 40.453125 -20.382812 37.199219 -16.738281 C 35.105469 -14.335938 31.464844 -11.546875 25.730469 -11.546875 L 16.972656 -11.546875 L 16.972656 -50.449219 Z M 25.730469 -50.449219 "/></g></g></g><g fill="#000000" fill-opacity="1"><g transform="translate(260.458727, 182.865156)"><g><path d="M 5.425781 -61.996094 L 17.050781 -61.996094 L 17.050781 -0.234375 L 5.425781 -0.234375 Z M 5.425781 -61.996094 "/></g></g></g><g fill="#00bf63" fill-opacity="1"><g transform="translate(69.27539, 272.365192)"><g><path d="M 10.546875 0.15625 C 7.804688 0.15625 6.4375 -0.59375 6.4375 -2.09375 L 6.4375 -52.15625 C 6.4375 -53.65625 7.804688 -54.40625 10.546875 -54.40625 L 12.5625 -54.40625 C 15.289062 -54.40625 16.65625 -53.65625 16.65625 -52.15625 L 16.65625 -32.078125 L 40.0625 -32.078125 L 40.0625 -52.15625 C 40.0625 -53.65625 41.429688 -54.40625 44.171875 -54.40625 L 46.1875 -54.40625 C 48.925781 -54.40625 50.296875 -53.65625 50.296875 -52.15625 L 50.296875 -2.09375 C 50.296875 -0.59375 48.925781 0.15625 46.1875 0.15625 L 44.171875 0.15625 C 41.429688 0.15625 40.0625 -0.59375 40.0625 -2.09375 L 40.0625 -23.328125 L 16.65625 -23.328125 L 16.65625 -2.09375 C 16.65625 -0.59375 15.289062 0.15625 12.5625 0.15625 Z M 10.546875 0.15625 "/></g></g></g><g fill="#00bf63" fill-opacity="1"><g transform="translate(126.080082, 272.365192)"><g><path d="M 9.296875 0 C 8.316406 0 7.59375 -0.226562 7.125 -0.6875 C 6.664062 -1.15625 6.4375 -1.882812 6.4375 -2.875 L 6.4375 -51.375 C 6.4375 -52.414062 6.664062 -53.15625 7.125 -53.59375 C 7.59375 -54.03125 8.316406 -54.25 9.296875 -54.25 L 36.421875 -54.25 C 37.148438 -54.25 37.679688 -53.988281 38.015625 -53.46875 C 38.347656 -52.957031 38.515625 -52.109375 38.515625 -50.921875 L 38.515625 -48.90625 C 38.515625 -47.71875 38.347656 -46.863281 38.015625 -46.34375 C 37.679688 -45.820312 37.148438 -45.5625 36.421875 -45.5625 L 16.578125 -45.5625 L 16.578125 -32.078125 L 34.25 -32.078125 C 34.976562 -32.078125 35.507812 -31.816406 35.84375 -31.296875 C 36.175781 -30.785156 36.34375 -29.9375 36.34375 -28.75 L 36.34375 -26.734375 C 36.34375 -25.546875 36.175781 -24.691406 35.84375 -24.171875 C 35.507812 -23.660156 34.976562 -23.40625 34.25 -23.40625 L 16.578125 -23.40625 L 16.578125 -8.6875 L 36.5 -8.6875 C 37.226562 -8.6875 37.757812 -8.425781 38.09375 -7.90625 C 38.425781 -7.382812 38.59375 -6.53125 38.59375 -5.34375 L 38.59375 -3.328125 C 38.59375 -2.140625 38.425781 -1.285156 38.09375 -0.765625 C 37.757812 -0.253906 37.226562 0 36.5 0 Z M 9.296875 0 "/></g></g></g><g fill="#00bf63" fill-opacity="1"><g transform="translate(168.392984, 272.365192)"><g><path d="M 4.578125 0.15625 C 1.734375 0.15625 0.3125 -0.359375 0.3125 -1.390625 C 0.3125 -1.546875 0.414062 -1.988281 0.625 -2.71875 L 18.140625 -52.9375 C 18.441406 -53.914062 19.757812 -54.40625 22.09375 -54.40625 L 25.5 -54.40625 C 27.769531 -54.40625 29.085938 -53.914062 29.453125 -52.9375 L 46.96875 -2.71875 C 47.125 -2.195312 47.203125 -1.753906 47.203125 -1.390625 C 47.203125 -0.359375 45.960938 0.15625 43.484375 0.15625 L 41.078125 0.15625 C 38.804688 0.15625 37.488281 -0.332031 37.125 -1.3125 L 33.5625 -11.9375 L 13.71875 -11.9375 L 10.15625 -1.3125 C 9.789062 -0.332031 8.65625 0.15625 6.75 0.15625 Z M 30.609375 -20.609375 L 24.953125 -37.671875 C 24.535156 -38.859375 24.175781 -40.457031 23.875 -42.46875 L 23.5625 -42.46875 C 23.507812 -42.15625 23.378906 -41.484375 23.171875 -40.453125 C 22.960938 -39.421875 22.703125 -38.492188 22.390625 -37.671875 L 16.578125 -20.609375 Z M 30.609375 -20.609375 "/></g></g></g><g fill="#00bf63" fill-opacity="1"><g transform="translate(215.898138, 272.365192)"><g><path d="M 10.234375 0.15625 C 7.492188 0.15625 6.125 -0.59375 6.125 -2.09375 L 6.125 -51.375 C 6.125 -52.363281 6.34375 -53.085938 6.78125 -53.546875 C 7.21875 -54.015625 7.925781 -54.25 8.90625 -54.25 L 23.328125 -54.25 C 29.785156 -54.25 34.578125 -53.0625 37.703125 -50.6875 C 40.828125 -48.3125 42.390625 -44.742188 42.390625 -39.984375 C 42.390625 -36.992188 41.585938 -34.410156 39.984375 -32.234375 C 38.390625 -30.066406 36.195312 -28.441406 33.40625 -27.359375 L 33.40625 -27.046875 C 34.539062 -26.628906 35.625 -25.710938 36.65625 -24.296875 C 37.6875 -22.878906 38.617188 -21.132812 39.453125 -19.0625 L 46.03125 -2.640625 C 46.238281 -1.910156 46.34375 -1.46875 46.34375 -1.3125 C 46.34375 -0.332031 44.945312 0.15625 42.15625 0.15625 L 39.828125 0.15625 C 37.554688 0.15625 36.21875 -0.332031 35.8125 -1.3125 L 29.765625 -16.5 C 28.828125 -18.625 27.722656 -20.097656 26.453125 -20.921875 C 25.191406 -21.753906 23.269531 -22.171875 20.6875 -22.171875 L 16.28125 -22.171875 L 16.28125 -2.09375 C 16.28125 -0.59375 14.910156 0.15625 12.171875 0.15625 Z M 24.640625 -30.921875 C 26.609375 -30.921875 28.316406 -31.679688 29.765625 -33.203125 C 31.210938 -34.734375 31.9375 -36.53125 31.9375 -38.59375 C 31.9375 -40.8125 31.238281 -42.523438 29.84375 -43.734375 C 28.445312 -44.953125 26.535156 -45.5625 24.109375 -45.5625 L 16.28125 -45.5625 L 16.28125 -30.921875 Z M 24.640625 -30.921875 "/></g></g></g><g fill="#00bf63" fill-opacity="1"><g transform="translate(263.170794, 272.365192)"><g><path d="M 20.3125 0.15625 C 17.570312 0.15625 16.203125 -0.59375 16.203125 -2.09375 L 16.203125 -45.5625 L 3.015625 -45.5625 C 2.296875 -45.5625 1.769531 -45.820312 1.4375 -46.34375 C 1.101562 -46.863281 0.9375 -47.71875 0.9375 -48.90625 L 0.9375 -50.921875 C 0.9375 -52.109375 1.101562 -52.957031 1.4375 -53.46875 C 1.769531 -53.988281 2.296875 -54.25 3.015625 -54.25 L 39.53125 -54.25 C 40.25 -54.25 40.773438 -53.988281 41.109375 -53.46875 C 41.453125 -52.957031 41.625 -52.109375 41.625 -50.921875 L 41.625 -48.90625 C 41.625 -47.71875 41.453125 -46.863281 41.109375 -46.34375 C 40.773438 -45.820312 40.25 -45.5625 39.53125 -45.5625 L 26.421875 -45.5625 L 26.421875 -2.09375 C 26.421875 -0.59375 25.050781 0.15625 22.3125 0.15625 Z M 20.3125 0.15625 "/></g></g></g></svg>